<svg xmlns="http://www.w3.org/2000/svg" xmlns:xlink="http://www.w3.org/1999/xlink" zoomAndPan="magnify" preserveAspectRatio="xMidYMid meet" version="1.0" viewBox="69.09 136.52 228.93 101.88"><defs><g/><clipPath id="2de9c18c29"><path d="M 159.195312 162.691406 L 181.695312 162.691406 L 181.695312 185.191406 L 159.195312 185.191406 Z M 159.195312 162.691406 " clip-rule="nonzero"/></clipPath><clipPath id="4d8a101f9a"><path d="M 185.519531 162.691406 L 208 162.691406 L 208 185.191406 L 185.519531 185.191406 Z M 185.519531 162.691406 " clip-rule="nonzero"/></clipPath><clipPath id="ba574239e2"><path d="M 159.195312 136.515625 L 181.695312 136.515625 L 181.695312 159 L 159.195312 159 Z M 159.195312 136.515625 " clip-rule="nonzero"/></clipPath><clipPath id="4cb330bf54"><path d="M 159.195312 136.515625 L 181.695312 136.515625 L 181.695312 159.015625 L 159.195312 159.015625 Z M 159.195312 136.515625 " clip-rule="nonzero"/></clipPath><clipPath id="38c5a0e21a"><path d="M 185.519531 136.515625 L 208 136.515625 L 208 159 L 185.519531 159 Z M 185.519531 136.515625 " clip-rule="nonzero"/></clipPath><clipPath id="6c3dd66e3e"><path d="M 185.519531 136.515625 L 208 136.515625 L 208 159.015625 L 185.519531 159.015625 Z M 185.519531 136.515625 " clip-rule="nonzero"/></clipPath><clipPath id="89ca753d9b"><path d="M 190.808594 167 L 202.808594 167 L 202.808594 180.484375 L 190.808594 180.484375 Z M 190.808594 167 " clip-rule="nonzero"/></clipPath></defs><g clip-path="url(#2de9c18c29)"><path fill="#070404" d="M 159.34375 185.042969 L 159.34375 162.957031 L 181.429688 162.957031 L 181.429688 185.042969 Z M 159.34375 185.042969 " fill-opacity="1" fill-rule="nonzero"/><path fill="#ffffff" d="M 181.578125 162.957031 L 181.578125 185.042969 C 181.578125 185.125 181.511719 185.191406 181.429688 185.191406 L 159.34375 185.191406 C 159.261719 185.191406 159.195312 185.125 159.195312 185.042969 L 159.195312 162.957031 C 159.195312 162.875 159.261719 162.808594 159.34375 162.808594 L 181.429688 162.808594 C 181.511719 162.808594 181.578125 162.875 181.578125 162.957031 Z M 181.28125 184.890625 L 181.28125 163.105469 L 159.496094 163.105469 L 159.496094 184.890625 Z M 181.28125 184.890625 " fill-opacity="1" fill-rule="nonzero"/></g><g clip-path="url(#4d8a101f9a)"><path fill="#737373" d="M 185.671875 185.042969 L 185.671875 162.957031 L 207.753906 162.957031 L 207.753906 185.042969 Z M 185.671875 185.042969 " fill-opacity="1" fill-rule="nonzero"/><path fill="#ffffff" d="M 207.902344 162.957031 L 207.902344 185.042969 C 207.902344 185.125 207.839844 185.191406 207.753906 185.191406 L 185.671875 185.191406 C 185.585938 185.191406 185.519531 185.125 185.519531 185.042969 L 185.519531 162.957031 C 185.519531 162.875 185.585938 162.808594 185.671875 162.808594 L 207.753906 162.808594 C 207.839844 162.808594 207.902344 162.875 207.902344 162.957031 Z M 207.605469 184.890625 L 207.605469 163.105469 L 185.820312 163.105469 L 185.820312 184.890625 Z M 207.605469 184.890625 " fill-opacity="1" fill-rule="nonzero"/></g><g clip-path="url(#ba574239e2)"><path fill="#070404" d="M 159.34375 158.867188 L 159.34375 136.78125 L 181.429688 136.78125 L 181.429688 158.867188 Z M 159.34375 158.867188 " fill-opacity="1" fill-rule="nonzero"/></g><g clip-path="url(#4cb330bf54)"><path fill="#ffffff" d="M 181.578125 136.78125 L 181.578125 158.867188 C 181.578125 158.949219 181.511719 159.015625 181.429688 159.015625 L 159.34375 159.015625 C 159.261719 159.015625 159.195312 158.949219 159.195312 158.867188 L 159.195312 136.78125 C 159.195312 136.699219 159.261719 136.632812 159.34375 136.632812 L 181.429688 136.632812 C 181.511719 136.632812 181.578125 136.699219 181.578125 136.78125 Z M 181.28125 158.71875 L 181.28125 136.933594 L 159.496094 136.933594 L 159.496094 158.71875 Z M 181.28125 158.71875 " fill-opacity="1" fill-rule="nonzero"/></g><g clip-path="url(#38c5a0e21a)"><path fill="#070404" d="M 185.671875 158.867188 L 185.671875 136.78125 L 207.753906 136.78125 L 207.753906 158.867188 Z M 185.671875 158.867188 " fill-opacity="1" fill-rule="nonzero"/></g><g clip-path="url(#6c3dd66e3e)"><path fill="#ffffff" d="M 207.902344 136.78125 L 207.902344 158.867188 C 207.902344 158.949219 207.839844 159.015625 207.753906 159.015625 L 185.671875 159.015625 C 185.585938 159.015625 185.519531 158.949219 185.519531 158.867188 L 185.519531 136.78125 C 185.519531 136.699219 185.585938 136.632812 185.671875 136.632812 L 207.753906 136.632812 C 207.839844 136.632812 207.902344 136.699219 207.902344 136.78125 Z M 207.605469 158.71875 L 207.605469 136.933594 L 185.820312 136.933594 L 185.820312 158.71875 Z M 207.605469 158.71875 " fill-opacity="1" fill-rule="nonzero"/></g><g clip-path="url(#89ca753d9b)"><path fill="#ffffff" d="M 202.941406 175.1875 C 202.679688 174.800781 200.875 170.792969 200.847656 170.554688 C 201.417969 170.46875 201.785156 169.996094 201.785156 169.511719 C 201.789062 169.121094 201.414062 169 201.257812 169.171875 C 201.148438 169.285156 201.21875 169.476562 201.324219 169.484375 C 201.324219 169.664062 201.234375 169.714844 201.097656 169.847656 C 200.964844 169.976562 200.507812 169.8125 200.339844 169.742188 C 200.070312 169.628906 199.828125 169.472656 199.503906 169.277344 L 199.503906 169.28125 C 199.128906 169.054688 198.957031 168.988281 198.773438 168.925781 C 198.078125 168.722656 197.777344 168.929688 197.570312 169.042969 L 197.574219 169.046875 L 197.566406 169.046875 C 197.410156 169.148438 197.339844 169.207031 197.199219 169.242188 C 197.199219 169.242188 197.140625 169.21875 197.140625 169.21875 C 197.101562 169.199219 197.082031 168.917969 197.136719 168.796875 C 197.242188 168.570312 197.585938 168.535156 197.652344 168.132812 C 197.703125 167.8125 197.527344 167.585938 197.292969 167.371094 C 197.292969 167.371094 197.296875 167.367188 197.296875 167.367188 C 197.292969 167.371094 197.214844 167.292969 197.207031 167.285156 C 197.167969 167.246094 197.140625 167.195312 197.109375 167.152344 C 196.996094 166.984375 196.875 167.023438 196.894531 167.023438 C 196.6875 167.042969 196.65625 167.234375 196.578125 167.304688 L 196.5 167.378906 C 196.398438 167.476562 196.222656 167.628906 196.164062 167.886719 C 196.09375 168.175781 196.214844 168.386719 196.445312 168.570312 C 196.601562 168.695312 196.738281 168.765625 196.695312 169.117188 C 196.675781 169.269531 196.632812 169.257812 196.542969 169.222656 C 196.105469 169.054688 195.824219 168.382812 194.207031 169.332031 L 194.210938 169.335938 C 194.148438 169.371094 194.144531 169.371094 194.074219 169.417969 L 194.074219 169.421875 C 193.800781 169.570312 193.527344 169.753906 193.160156 169.847656 C 193.054688 169.875 192.9375 169.917969 192.828125 169.894531 C 192.632812 169.851562 192.46875 169.625 192.484375 169.484375 C 192.480469 169.488281 192.546875 169.453125 192.550781 169.449219 C 192.679688 169.324219 192.566406 169.042969 192.300781 169.101562 C 191.730469 169.230469 192.058594 170.46875 192.960938 170.546875 C 192.945312 170.671875 191.757812 173.511719 190.878906 175.144531 C 190.851562 175.21875 190.8125 175.242188 190.835938 175.3125 C 190.867188 175.410156 191.015625 175.496094 191.109375 175.527344 C 191.121094 175.53125 191.121094 175.53125 191.121094 175.53125 C 191.265625 176.089844 191.691406 176.601562 192.066406 176.851562 C 192.585938 177.195312 193.359375 177.195312 193.695312 177.136719 C 194.320312 177.03125 195.191406 176.488281 195.433594 175.761719 C 195.464844 175.664062 195.464844 175.660156 195.507812 175.554688 C 195.667969 175.554688 195.742188 175.371094 195.765625 175.339844 C 195.773438 175.230469 195.734375 175.15625 195.625 175.125 C 195.308594 174.417969 195.242188 174.582031 194.554688 172.851562 C 193.773438 170.875 194 171.085938 193.664062 170.453125 C 193.691406 170.4375 193.71875 170.421875 193.746094 170.40625 C 193.742188 170.40625 193.742188 170.414062 193.742188 170.417969 C 193.867188 170.351562 194.085938 170.109375 194.425781 169.917969 L 194.425781 169.910156 C 194.605469 169.839844 194.628906 169.832031 194.679688 169.808594 C 194.914062 169.773438 195.59375 169.609375 196.175781 170.542969 L 196.175781 170.550781 C 196.222656 170.652344 196.375 171.035156 196.398438 171.125 C 196.152344 171.152344 196.140625 171.390625 196.125 171.628906 L 196.132812 171.625 C 196.132812 171.695312 196.144531 171.761719 196.160156 171.828125 L 196.152344 171.828125 C 196.167969 171.863281 196.164062 171.847656 196.171875 171.890625 L 196.183594 171.890625 C 196.226562 171.976562 196.289062 172.0625 196.355469 172.140625 L 196.375 172.210938 C 196.417969 172.351562 196.242188 172.441406 196.222656 172.699219 C 196.199219 172.964844 196.320312 173.070312 196.3125 173.210938 C 196.296875 173.398438 196.21875 173.453125 196.292969 173.671875 L 196.292969 173.675781 C 196.3125 173.71875 196.328125 173.765625 196.347656 173.808594 C 196.367188 173.863281 196.402344 173.890625 196.402344 173.953125 C 196.402344 174.003906 196.382812 174.050781 196.367188 174.097656 C 196.160156 174.792969 196.675781 175.027344 195.734375 176.769531 C 195.546875 177.117188 195.441406 177.25 195.589844 177.734375 C 195.722656 178.167969 195.570312 178.164062 195.140625 178.539062 L 195.144531 178.542969 C 195.117188 178.570312 194.429688 179.335938 194.40625 179.359375 C 194.378906 179.390625 194.527344 179.511719 194.550781 179.527344 C 194.679688 179.609375 194.757812 179.605469 195.15625 179.746094 C 196.550781 180.25 198.058594 180.105469 199.214844 179.5625 C 199.320312 179.507812 199.398438 179.441406 199.390625 179.320312 C 199.390625 179.320312 199.300781 179.246094 199.289062 179.234375 C 199.285156 179.230469 198.972656 178.882812 198.972656 178.875 C 198.652344 178.503906 198.695312 178.566406 198.550781 178.4375 L 198.546875 178.4375 C 198.050781 178.042969 198.128906 178.09375 198.28125 177.492188 L 198.273438 177.496094 C 198.3125 177.230469 198.242188 177.109375 198.144531 176.886719 L 198.136719 176.890625 C 198.078125 176.777344 198.058594 176.75 197.992188 176.609375 L 197.988281 176.609375 C 197.667969 175.933594 197.589844 175.699219 197.5 175.3125 C 197.5 175.3125 197.492188 175.222656 197.488281 175.171875 L 197.484375 175.171875 C 197.476562 175.011719 197.476562 174.933594 197.488281 174.792969 L 197.484375 174.792969 C 197.496094 174.535156 197.5 174.394531 197.460938 174.183594 C 197.457031 174.171875 197.460938 174.183594 197.449219 174.128906 L 197.445312 174.128906 C 197.421875 174.046875 197.398438 173.972656 197.414062 173.902344 C 197.421875 173.851562 197.453125 173.757812 197.496094 173.726562 C 197.554688 173.59375 197.554688 173.46875 197.519531 173.332031 C 197.4375 173.027344 197.742188 172.867188 197.484375 172.410156 C 197.410156 172.277344 197.421875 172.277344 197.441406 172.140625 C 197.457031 172.128906 197.46875 172.121094 197.480469 172.097656 L 197.480469 172.101562 L 197.59375 171.941406 C 197.691406 171.808594 197.773438 171.1875 197.414062 171.125 L 197.40625 171.132812 L 197.402344 171.132812 C 197.4375 171.027344 197.578125 170.664062 197.59375 170.632812 L 197.59375 170.628906 C 197.886719 170.0625 198.320312 169.804688 198.714844 169.777344 C 198.8125 169.769531 198.820312 169.765625 199.027344 169.789062 L 199.027344 169.785156 L 199.03125 169.792969 C 199.25 169.847656 199.320312 169.882812 199.519531 169.992188 L 199.519531 170 C 199.632812 170.074219 199.609375 170.058594 200.011719 170.382812 L 200.003906 170.367188 C 200.050781 170.398438 200.097656 170.425781 200.144531 170.449219 C 199.804688 171.027344 199.976562 171.144531 199.125 173.15625 C 198.449219 174.769531 198.515625 174.382812 198.179688 175.125 C 198.070312 175.15625 198.03125 175.230469 198.039062 175.332031 C 198.058594 175.363281 198.132812 175.550781 198.300781 175.554688 C 198.472656 176.019531 198.375 175.875 198.535156 176.109375 C 198.855469 176.574219 199.347656 176.925781 199.84375 177.074219 C 200.457031 177.257812 201.230469 177.148438 201.597656 176.933594 C 202.097656 176.636719 202.519531 176.144531 202.6875 175.527344 C 202.757812 175.519531 202.960938 175.402344 202.972656 175.292969 C 202.976562 175.265625 202.972656 175.226562 202.941406 175.1875 Z M 194.042969 172.230469 C 194.367188 173.269531 195.160156 174.984375 195.25 175.109375 C 195.058594 175.125 195.054688 175.128906 194.601562 175.113281 C 193.105469 175.066406 194.160156 175.1875 191.289062 175.089844 C 191.394531 174.730469 191.621094 174.445312 191.78125 174.101562 C 191.984375 173.671875 192.164062 173.230469 192.355469 172.800781 C 192.710938 172.011719 193.011719 171.378906 193.203125 170.566406 C 193.265625 170.566406 193.332031 170.5625 193.414062 170.542969 C 193.546875 170.707031 193.976562 172.03125 194.042969 172.230469 Z M 194.742188 169.5 C 194.75 169.488281 194.757812 169.480469 194.761719 169.46875 C 194.761719 169.476562 194.753906 169.488281 194.742188 169.5 Z M 195.925781 169.964844 C 195.921875 169.964844 195.921875 169.960938 195.921875 169.960938 C 195.921875 169.960938 195.925781 169.957031 195.929688 169.960938 C 195.925781 169.960938 195.925781 169.964844 195.925781 169.964844 Z M 196.625 170.242188 C 196.625 170.238281 196.625 170.238281 196.625 170.234375 C 196.625 170.234375 196.628906 170.234375 196.628906 170.234375 C 196.628906 170.238281 196.628906 170.238281 196.625 170.242188 Z M 198.035156 169.832031 C 198.035156 169.828125 198.035156 169.828125 198.035156 169.828125 C 198.035156 169.828125 198.039062 169.828125 198.042969 169.832031 Z M 201.367188 175.125 C 200.777344 175.15625 200.183594 175.097656 199.800781 175.101562 C 199.269531 175.097656 199 175.144531 198.558594 175.109375 C 198.574219 175.089844 198.5625 175.101562 198.585938 175.082031 C 198.625 174.988281 198.613281 174.960938 198.730469 174.746094 C 198.902344 174.441406 199.46875 173.109375 199.695312 172.445312 C 200.316406 170.621094 200.253906 170.71875 200.394531 170.539062 C 200.464844 170.554688 200.535156 170.5625 200.605469 170.566406 C 200.816406 171.460938 201.09375 171.988281 201.816406 173.644531 C 202.261719 174.644531 202.398438 174.675781 202.519531 175.09375 C 202.519531 175.09375 202.085938 175.09375 201.367188 175.125 Z M 201.367188 175.125 " fill-opacity="1" fill-rule="nonzero"/></g><g fill="#ffffff" fill-opacity="1"><g transform="translate(165.8501, 152.402541)"><g><path d="M 4.015625 -8.28125 L 3.46875 -8.28125 C 3.457031 -8.28125 3.445312 -8.28125 3.4375 -8.28125 L 3.4375 -0.921875 C 3.445312 -0.703125 3.523438 -0.515625 3.671875 -0.359375 C 3.828125 -0.203125 4.015625 -0.125 4.234375 -0.125 L 4.40625 -0.125 L 4.40625 0 L 0.5625 0 L 0.5625 -0.125 L 0.734375 -0.125 C 1.035156 -0.125 1.265625 -0.253906 1.421875 -0.515625 C 1.492188 -0.628906 1.535156 -0.757812 1.546875 -0.90625 L 1.546875 -7.921875 C 1.535156 -8.140625 1.453125 -8.328125 1.296875 -8.484375 C 1.140625 -8.640625 0.953125 -8.71875 0.734375 -8.71875 L 0.5625 -8.71875 L 0.5625 -8.84375 L 4.90625 -8.84375 C 5.71875 -8.84375 6.40625 -8.664062 6.96875 -8.3125 C 7.25 -8.132812 7.472656 -7.882812 7.640625 -7.5625 C 7.816406 -7.25 7.90625 -6.835938 7.90625 -6.328125 C 7.90625 -5.816406 7.726562 -5.328125 7.375 -4.859375 C 7.019531 -4.390625 6.503906 -4.117188 5.828125 -4.046875 C 6.316406 -3.890625 6.75 -3.519531 7.125 -2.9375 C 8.03125 -1.476562 8.703125 -0.613281 9.140625 -0.34375 C 9.359375 -0.207031 9.632812 -0.132812 9.96875 -0.125 L 9.96875 0 L 8.71875 0 C 7.988281 0 7.378906 -0.09375 6.890625 -0.28125 C 6.410156 -0.476562 6.03125 -0.820312 5.75 -1.3125 C 5.59375 -1.59375 5.242188 -2.3125 4.703125 -3.46875 C 4.472656 -3.976562 4.1875 -4.257812 3.84375 -4.3125 L 3.84375 -4.4375 L 4.234375 -4.4375 C 4.617188 -4.4375 4.957031 -4.550781 5.25 -4.78125 C 5.539062 -5.007812 5.734375 -5.378906 5.828125 -5.890625 C 5.867188 -6.066406 5.890625 -6.207031 5.890625 -6.3125 C 5.890625 -7 5.75 -7.492188 5.46875 -7.796875 C 5.1875 -8.109375 4.828125 -8.269531 4.390625 -8.28125 C 4.304688 -8.28125 4.179688 -8.28125 4.015625 -8.28125 Z M 4.015625 -8.28125 "/></g></g></g><g fill="#ffffff" fill-opacity="1"><g transform="translate(190.853462, 152.402541)"><g><path d="M 9.3125 -0.125 L 9.4375 -0.125 L 9.4375 0 L 5.40625 0 L 5.40625 -0.125 L 5.515625 -0.125 C 5.703125 -0.125 5.835938 -0.179688 5.921875 -0.296875 C 6.015625 -0.410156 6.0625 -0.515625 6.0625 -0.609375 C 6.0625 -0.710938 6.039062 -0.816406 6 -0.921875 L 5.375 -2.46875 L 2.421875 -2.46875 L 1.765625 -0.921875 C 1.722656 -0.804688 1.703125 -0.703125 1.703125 -0.609375 C 1.703125 -0.515625 1.75 -0.410156 1.84375 -0.296875 C 1.9375 -0.179688 2.078125 -0.125 2.265625 -0.125 L 2.359375 -0.125 L 2.359375 0 L -0.34375 0 L -0.34375 -0.125 L -0.21875 -0.125 C -0.03125 -0.125 0.15625 -0.179688 0.34375 -0.296875 C 0.539062 -0.421875 0.707031 -0.597656 0.84375 -0.828125 L 3.75 -7.4375 C 4.144531 -8.269531 4.359375 -8.820312 4.390625 -9.09375 L 4.5 -9.09375 L 8.25 -0.859375 C 8.375 -0.617188 8.53125 -0.4375 8.71875 -0.3125 C 8.914062 -0.1875 9.113281 -0.125 9.3125 -0.125 Z M 2.640625 -3 L 5.171875 -3 L 3.9375 -6.109375 Z M 2.640625 -3 "/></g></g></g><g fill="#ffffff" fill-opacity="1"><g transform="translate(165.336172, 177.681684)"><g><path d="M 5.109375 -8.84375 C 6.597656 -8.84375 7.773438 -8.445312 8.640625 -7.65625 C 9.515625 -6.863281 9.953125 -5.785156 9.953125 -4.421875 C 9.953125 -3.054688 9.515625 -1.976562 8.640625 -1.1875 C 7.773438 -0.394531 6.597656 0 5.109375 0 L 0.53125 0 L 0.53125 -0.125 L 0.6875 -0.125 C 0.90625 -0.125 1.09375 -0.203125 1.25 -0.359375 C 1.40625 -0.515625 1.488281 -0.703125 1.5 -0.921875 L 1.5 -7.984375 C 1.5 -8.191406 1.414062 -8.363281 1.25 -8.5 C 1.09375 -8.644531 0.90625 -8.71875 0.6875 -8.71875 L 0.53125 -8.71875 L 0.53125 -8.84375 Z M 4.953125 -0.546875 C 5.554688 -0.546875 6.078125 -0.703125 6.515625 -1.015625 C 6.960938 -1.328125 7.300781 -1.773438 7.53125 -2.359375 C 7.769531 -2.941406 7.890625 -3.578125 7.890625 -4.265625 C 7.890625 -4.953125 7.816406 -5.535156 7.671875 -6.015625 C 7.535156 -6.503906 7.34375 -6.921875 7.09375 -7.265625 C 6.570312 -7.960938 5.859375 -8.3125 4.953125 -8.3125 L 3.390625 -8.3125 L 3.390625 -0.546875 Z M 4.953125 -0.546875 "/></g></g></g><g fill="#000000" fill-opacity="1"><g transform="translate(69.461996, 225.562396)"><g><path d="M 4.90625 -10.125 L 4.25 -10.125 C 4.226562 -10.125 4.210938 -10.125 4.203125 -10.125 L 4.203125 -1.125 C 4.210938 -0.851562 4.3125 -0.625 4.5 -0.4375 C 4.6875 -0.25 4.914062 -0.15625 5.1875 -0.15625 L 5.390625 -0.15625 L 5.390625 0 L 0.6875 0 L 0.6875 -0.15625 L 0.890625 -0.15625 C 1.265625 -0.15625 1.550781 -0.316406 1.75 -0.640625 C 1.832031 -0.773438 1.878906 -0.929688 1.890625 -1.109375 L 1.890625 -9.671875 C 1.878906 -9.941406 1.773438 -10.171875 1.578125 -10.359375 C 1.390625 -10.554688 1.160156 -10.65625 0.890625 -10.65625 L 0.6875 -10.65625 L 0.6875 -10.8125 L 5.984375 -10.8125 C 6.984375 -10.8125 7.828125 -10.59375 8.515625 -10.15625 C 8.867188 -9.9375 9.144531 -9.632812 9.34375 -9.25 C 9.550781 -8.863281 9.65625 -8.359375 9.65625 -7.734375 C 9.65625 -7.117188 9.4375 -6.519531 9 -5.9375 C 8.570312 -5.363281 7.945312 -5.035156 7.125 -4.953125 C 7.726562 -4.753906 8.253906 -4.300781 8.703125 -3.59375 C 9.816406 -1.8125 10.640625 -0.753906 11.171875 -0.421875 C 11.441406 -0.253906 11.78125 -0.164062 12.1875 -0.15625 L 12.1875 0 L 10.671875 0 C 9.773438 0 9.03125 -0.113281 8.4375 -0.34375 C 7.84375 -0.582031 7.378906 -1.003906 7.046875 -1.609375 C 6.847656 -1.941406 6.421875 -2.820312 5.765625 -4.25 C 5.472656 -4.875 5.117188 -5.21875 4.703125 -5.28125 L 4.703125 -5.4375 L 5.1875 -5.4375 C 5.644531 -5.4375 6.050781 -5.570312 6.40625 -5.84375 C 6.769531 -6.125 7.007812 -6.578125 7.125 -7.203125 C 7.164062 -7.421875 7.1875 -7.59375 7.1875 -7.71875 C 7.1875 -8.5625 7.015625 -9.171875 6.671875 -9.546875 C 6.335938 -9.921875 5.90625 -10.113281 5.375 -10.125 C 5.269531 -10.125 5.113281 -10.125 4.90625 -10.125 Z M 4.90625 -10.125 "/></g></g></g><g fill="#000000" fill-opacity="1"><g transform="translate(80.9909, 225.562396)"><g><path d="M 2.390625 -9.5 C 3.492188 -10.507812 4.972656 -11.015625 6.828125 -11.015625 C 8.691406 -11.015625 10.171875 -10.507812 11.265625 -9.5 C 12.359375 -8.5 12.90625 -7.132812 12.90625 -5.40625 C 12.90625 -3.675781 12.359375 -2.304688 11.265625 -1.296875 C 10.171875 -0.285156 8.691406 0.21875 6.828125 0.21875 C 4.972656 0.21875 3.492188 -0.285156 2.390625 -1.296875 C 1.296875 -2.304688 0.75 -3.675781 0.75 -5.40625 C 0.75 -7.132812 1.296875 -8.5 2.390625 -9.5 Z M 4.234375 -1.765625 C 4.867188 -0.878906 5.726562 -0.4375 6.8125 -0.4375 C 7.90625 -0.4375 8.769531 -0.878906 9.40625 -1.765625 C 10.050781 -2.660156 10.375 -3.875 10.375 -5.40625 C 10.375 -6.9375 10.050781 -8.144531 9.40625 -9.03125 C 8.769531 -9.925781 7.90625 -10.375 6.8125 -10.375 C 5.726562 -10.375 4.867188 -9.925781 4.234375 -9.03125 C 3.597656 -8.144531 3.28125 -6.9375 3.28125 -5.40625 C 3.28125 -3.875 3.597656 -2.660156 4.234375 -1.765625 Z M 4.234375 -1.765625 "/></g></g></g><g fill="#000000" fill-opacity="1"><g transform="translate(94.541608, 225.562396)"><g><path d="M 5.53125 0 L 0.640625 0 L 0.640625 -0.15625 L 0.84375 -0.15625 C 1.21875 -0.15625 1.503906 -0.316406 1.703125 -0.640625 C 1.785156 -0.773438 1.832031 -0.929688 1.84375 -1.109375 L 1.84375 -9.6875 C 1.832031 -9.957031 1.726562 -10.1875 1.53125 -10.375 C 1.34375 -10.5625 1.113281 -10.65625 0.84375 -10.65625 L 0.640625 -10.65625 L 0.640625 -10.8125 L 5.125 -10.8125 C 6.320312 -10.8125 7.269531 -10.59375 7.96875 -10.15625 C 8.675781 -9.726562 9.035156 -9.066406 9.046875 -8.171875 C 9.035156 -7.710938 8.9375 -7.316406 8.75 -6.984375 C 8.414062 -6.335938 7.878906 -5.96875 7.140625 -5.875 C 7.941406 -5.8125 8.597656 -5.519531 9.109375 -5 C 9.617188 -4.476562 9.875 -3.816406 9.875 -3.015625 C 9.875 -2.046875 9.484375 -1.300781 8.703125 -0.78125 C 7.929688 -0.257812 6.875 0 5.53125 0 Z M 6.578125 -7.96875 C 6.566406 -9.414062 5.90625 -10.140625 4.59375 -10.140625 L 4.15625 -10.140625 L 4.15625 -0.703125 L 4.859375 -0.703125 C 4.867188 -0.703125 4.878906 -0.703125 4.890625 -0.703125 C 5.597656 -0.703125 6.160156 -0.90625 6.578125 -1.3125 C 7.003906 -1.726562 7.21875 -2.359375 7.21875 -3.203125 C 7.21875 -4.054688 6.976562 -4.6875 6.5 -5.09375 C 6.03125 -5.507812 5.421875 -5.71875 4.671875 -5.71875 L 4.671875 -5.84375 C 5.210938 -5.84375 5.660156 -6.015625 6.015625 -6.359375 C 6.378906 -6.710938 6.566406 -7.25 6.578125 -7.96875 Z M 6.578125 -7.96875 "/></g></g></g><g fill="#000000" fill-opacity="1"><g transform="translate(104.943863, 225.562396)"><g><path d="M 0.765625 -1.4375 C 0.765625 -2.175781 0.925781 -2.804688 1.25 -3.328125 L 1.390625 -3.328125 C 1.378906 -3.253906 1.375 -3.175781 1.375 -3.09375 C 1.375 -2.375 1.628906 -1.75 2.140625 -1.21875 C 2.648438 -0.695312 3.347656 -0.4375 4.234375 -0.4375 C 4.921875 -0.4375 5.457031 -0.597656 5.84375 -0.921875 C 6.226562 -1.253906 6.421875 -1.671875 6.421875 -2.171875 C 6.421875 -2.472656 6.320312 -2.738281 6.125 -2.96875 C 5.9375 -3.207031 5.625 -3.472656 5.1875 -3.765625 L 2.5 -5.546875 C 1.5 -6.210938 1 -7.035156 1 -8.015625 C 1 -8.117188 1.007812 -8.222656 1.03125 -8.328125 C 1.09375 -9.140625 1.410156 -9.789062 1.984375 -10.28125 C 2.554688 -10.769531 3.320312 -11.015625 4.28125 -11.015625 C 4.84375 -11.015625 5.539062 -10.96875 6.375 -10.875 L 7.34375 -10.875 L 7.140625 -8.59375 L 7 -8.59375 C 7 -9.132812 6.796875 -9.566406 6.390625 -9.890625 C 5.992188 -10.210938 5.46875 -10.375 4.8125 -10.375 C 4.007812 -10.375 3.429688 -10.128906 3.078125 -9.640625 C 2.890625 -9.398438 2.796875 -9.160156 2.796875 -8.921875 C 2.796875 -8.679688 2.84375 -8.484375 2.9375 -8.328125 C 3.082031 -8.054688 3.394531 -7.765625 3.875 -7.453125 L 6.828125 -5.546875 C 7.753906 -4.929688 8.21875 -4.140625 8.21875 -3.171875 C 8.21875 -2.078125 7.84375 -1.238281 7.09375 -0.65625 C 6.34375 -0.0703125 5.351562 0.21875 4.125 0.21875 C 3.425781 0.21875 2.78125 0.132812 2.1875 -0.03125 C 1.59375 -0.207031 1.15625 -0.4375 0.875 -0.71875 C 0.800781 -0.914062 0.765625 -1.15625 0.765625 -1.4375 Z M 0.765625 -1.4375 "/></g></g></g><g fill="#000000" fill-opacity="1"><g transform="translate(113.864486, 225.562396)"><g><path d="M 2.390625 -9.5 C 3.492188 -10.507812 4.972656 -11.015625 6.828125 -11.015625 C 8.691406 -11.015625 10.171875 -10.507812 11.265625 -9.5 C 12.359375 -8.5 12.90625 -7.132812 12.90625 -5.40625 C 12.90625 -3.675781 12.359375 -2.304688 11.265625 -1.296875 C 10.171875 -0.285156 8.691406 0.21875 6.828125 0.21875 C 4.972656 0.21875 3.492188 -0.285156 2.390625 -1.296875 C 1.296875 -2.304688 0.75 -3.675781 0.75 -5.40625 C 0.75 -7.132812 1.296875 -8.5 2.390625 -9.5 Z M 4.234375 -1.765625 C 4.867188 -0.878906 5.726562 -0.4375 6.8125 -0.4375 C 7.90625 -0.4375 8.769531 -0.878906 9.40625 -1.765625 C 10.050781 -2.660156 10.375 -3.875 10.375 -5.40625 C 10.375 -6.9375 10.050781 -8.144531 9.40625 -9.03125 C 8.769531 -9.925781 7.90625 -10.375 6.8125 -10.375 C 5.726562 -10.375 4.867188 -9.925781 4.234375 -9.03125 C 3.597656 -8.144531 3.28125 -6.9375 3.28125 -5.40625 C 3.28125 -3.875 3.597656 -2.660156 4.234375 -1.765625 Z M 4.234375 -1.765625 "/></g></g></g><g fill="#000000" fill-opacity="1"><g transform="translate(127.415194, 225.562396)"><g><path d="M 12.609375 -10.65625 C 12.253906 -10.65625 11.984375 -10.5 11.796875 -10.1875 C 11.710938 -10.050781 11.664062 -9.894531 11.65625 -9.71875 L 11.65625 -1.765625 C 11.65625 -1.066406 11.703125 -0.484375 11.796875 -0.015625 L 11.84375 0.21875 L 11.703125 0.21875 L 3.90625 -7.203125 L 3.90625 -1.078125 C 3.90625 -0.816406 4 -0.597656 4.1875 -0.421875 C 4.375 -0.242188 4.59375 -0.15625 4.84375 -0.15625 L 5.140625 -0.15625 L 5.140625 0 L 0.46875 0 L 0.46875 -0.15625 L 0.734375 -0.15625 C 1.003906 -0.15625 1.234375 -0.242188 1.421875 -0.421875 C 1.609375 -0.597656 1.703125 -0.820312 1.703125 -1.09375 L 1.703125 -9.109375 C 1.703125 -9.785156 1.65625 -10.351562 1.5625 -10.8125 L 1.53125 -11.03125 L 1.671875 -11.03125 L 9.46875 -3.609375 L 9.46875 -9.703125 C 9.457031 -9.972656 9.359375 -10.195312 9.171875 -10.375 C 8.984375 -10.5625 8.757812 -10.65625 8.5 -10.65625 L 8.234375 -10.65625 L 8.234375 -10.8125 L 12.90625 -10.8125 L 12.90625 -10.65625 Z M 12.609375 -10.65625 "/></g></g></g><g fill="#000000" fill-opacity="1"><g transform="translate(140.765265, 225.562396)"><g/></g></g><g fill="#000000" fill-opacity="1"><g transform="translate(144.623663, 225.562396)"><g><path d="M 11.390625 -0.15625 L 11.53125 -0.15625 L 11.53125 0 L 6.609375 0 L 6.609375 -0.15625 L 6.75 -0.15625 C 6.976562 -0.15625 7.144531 -0.222656 7.25 -0.359375 C 7.351562 -0.503906 7.40625 -0.632812 7.40625 -0.75 C 7.40625 -0.875 7.378906 -1 7.328125 -1.125 L 6.578125 -3.03125 L 2.96875 -3.03125 L 2.15625 -1.125 C 2.101562 -0.988281 2.078125 -0.863281 2.078125 -0.75 C 2.078125 -0.632812 2.132812 -0.503906 2.25 -0.359375 C 2.363281 -0.222656 2.535156 -0.15625 2.765625 -0.15625 L 2.890625 -0.15625 L 2.890625 0 L -0.421875 0 L -0.421875 -0.15625 L -0.28125 -0.15625 C -0.0390625 -0.15625 0.191406 -0.226562 0.421875 -0.375 C 0.660156 -0.519531 0.859375 -0.734375 1.015625 -1.015625 L 4.578125 -9.09375 C 5.066406 -10.113281 5.328125 -10.785156 5.359375 -11.109375 L 5.5 -11.109375 L 10.078125 -1.046875 C 10.234375 -0.753906 10.425781 -0.53125 10.65625 -0.375 C 10.894531 -0.226562 11.140625 -0.15625 11.390625 -0.15625 Z M 3.234375 -3.671875 L 6.3125 -3.671875 L 4.8125 -7.46875 Z M 3.234375 -3.671875 "/></g></g></g><g fill="#000000" fill-opacity="1"><g transform="translate(155.674123, 225.562396)"><g><path d="M 6.3125 -10.171875 L 6.3125 -1.109375 C 6.320312 -0.835938 6.421875 -0.609375 6.609375 -0.421875 C 6.804688 -0.242188 7.035156 -0.15625 7.296875 -0.15625 L 7.484375 -0.15625 L 7.5 0 L 2.8125 0 L 2.8125 -0.15625 L 3.015625 -0.15625 C 3.265625 -0.15625 3.484375 -0.242188 3.671875 -0.421875 C 3.867188 -0.609375 3.976562 -0.832031 4 -1.09375 L 4 -10.171875 L 1.921875 -10.171875 C 1.441406 -10.160156 1.0625 -10.007812 0.78125 -9.71875 C 0.507812 -9.4375 0.375 -9.0625 0.375 -8.59375 L 0.375 -8.40625 L 0.21875 -8.40625 L 0.21875 -11.09375 C 0.632812 -10.925781 1.238281 -10.835938 2.03125 -10.828125 L 8.265625 -10.828125 C 8.578125 -10.828125 8.921875 -10.851562 9.296875 -10.90625 C 9.671875 -10.96875 9.929688 -11.03125 10.078125 -11.09375 L 10.078125 -8.40625 L 9.921875 -8.40625 L 9.921875 -8.59375 C 9.921875 -9.238281 9.679688 -9.691406 9.203125 -9.953125 C 8.972656 -10.085938 8.695312 -10.160156 8.375 -10.171875 Z M 6.3125 -10.171875 "/></g></g></g><g fill="#000000" fill-opacity="1"><g transform="translate(165.952908, 225.562396)"><g><path d="M 2.390625 -9.5 C 3.492188 -10.507812 4.972656 -11.015625 6.828125 -11.015625 C 8.691406 -11.015625 10.171875 -10.507812 11.265625 -9.5 C 12.359375 -8.5 12.90625 -7.132812 12.90625 -5.40625 C 12.90625 -3.675781 12.359375 -2.304688 11.265625 -1.296875 C 10.171875 -0.285156 8.691406 0.21875 6.828125 0.21875 C 4.972656 0.21875 3.492188 -0.285156 2.390625 -1.296875 C 1.296875 -2.304688 0.75 -3.675781 0.75 -5.40625 C 0.75 -7.132812 1.296875 -8.5 2.390625 -9.5 Z M 4.234375 -1.765625 C 4.867188 -0.878906 5.726562 -0.4375 6.8125 -0.4375 C 7.90625 -0.4375 8.769531 -0.878906 9.40625 -1.765625 C 10.050781 -2.660156 10.375 -3.875 10.375 -5.40625 C 10.375 -6.9375 10.050781 -8.144531 9.40625 -9.03125 C 8.769531 -9.925781 7.90625 -10.375 6.8125 -10.375 C 5.726562 -10.375 4.867188 -9.925781 4.234375 -9.03125 C 3.597656 -8.144531 3.28125 -6.9375 3.28125 -5.40625 C 3.28125 -3.875 3.597656 -2.660156 4.234375 -1.765625 Z M 4.234375 -1.765625 "/></g></g></g><g fill="#000000" fill-opacity="1"><g transform="translate(179.503616, 225.562396)"><g><path d="M 12.609375 -10.65625 C 12.253906 -10.65625 11.984375 -10.5 11.796875 -10.1875 C 11.710938 -10.050781 11.664062 -9.894531 11.65625 -9.71875 L 11.65625 -1.765625 C 11.65625 -1.066406 11.703125 -0.484375 11.796875 -0.015625 L 11.84375 0.21875 L 11.703125 0.21875 L 3.90625 -7.203125 L 3.90625 -1.078125 C 3.90625 -0.816406 4 -0.597656 4.1875 -0.421875 C 4.375 -0.242188 4.59375 -0.15625 4.84375 -0.15625 L 5.140625 -0.15625 L 5.140625 0 L 0.46875 0 L 0.46875 -0.15625 L 0.734375 -0.15625 C 1.003906 -0.15625 1.234375 -0.242188 1.421875 -0.421875 C 1.609375 -0.597656 1.703125 -0.820312 1.703125 -1.09375 L 1.703125 -9.109375 C 1.703125 -9.785156 1.65625 -10.351562 1.5625 -10.8125 L 1.53125 -11.03125 L 1.671875 -11.03125 L 9.46875 -3.609375 L 9.46875 -9.703125 C 9.457031 -9.972656 9.359375 -10.195312 9.171875 -10.375 C 8.984375 -10.5625 8.757812 -10.65625 8.5 -10.65625 L 8.234375 -10.65625 L 8.234375 -10.8125 L 12.90625 -10.8125 L 12.90625 -10.65625 Z M 12.609375 -10.65625 "/></g></g></g><g fill="#000000" fill-opacity="1"><g transform="translate(192.853686, 225.562396)"><g><path d="M 11.34375 -10.65625 L 11.125 -10.65625 C 10.820312 -10.65625 10.53125 -10.566406 10.25 -10.390625 C 9.96875 -10.210938 9.75 -10 9.59375 -9.75 L 6.546875 -4.90625 L 6.546875 -1.125 C 6.546875 -0.851562 6.640625 -0.625 6.828125 -0.4375 C 7.023438 -0.25 7.257812 -0.15625 7.53125 -0.15625 L 7.71875 -0.15625 L 7.734375 0 L 3.046875 0 L 3.046875 -0.15625 L 3.234375 -0.15625 C 3.503906 -0.15625 3.734375 -0.242188 3.921875 -0.421875 C 4.117188 -0.609375 4.222656 -0.835938 4.234375 -1.109375 L 4.234375 -4.921875 L 1.28125 -9.765625 C 1.125 -10.015625 0.90625 -10.222656 0.625 -10.390625 C 0.34375 -10.566406 0.0507812 -10.65625 -0.25 -10.65625 L -0.46875 -10.65625 L -0.46875 -10.8125 L 4.640625 -10.8125 L 4.640625 -10.65625 L 4.453125 -10.65625 C 4.222656 -10.65625 4.046875 -10.550781 3.921875 -10.34375 C 3.859375 -10.226562 3.828125 -10.113281 3.828125 -10 C 3.828125 -9.894531 3.851562 -9.789062 3.90625 -9.6875 L 6.109375 -5.6875 L 8.40625 -9.6875 C 8.457031 -9.789062 8.484375 -9.894531 8.484375 -10 C 8.484375 -10.113281 8.445312 -10.222656 8.375 -10.328125 C 8.257812 -10.546875 8.085938 -10.65625 7.859375 -10.65625 L 7.671875 -10.65625 L 7.671875 -10.8125 L 11.34375 -10.8125 Z M 11.34375 -10.65625 "/></g></g></g><g fill="#000000" fill-opacity="1"><g transform="translate(203.688082, 225.562396)"><g/></g></g><g fill="#000000" fill-opacity="1"><g transform="translate(207.54648, 225.562396)"><g><path d="M 6.25 -10.8125 C 8.070312 -10.8125 9.515625 -10.328125 10.578125 -9.359375 C 11.640625 -8.390625 12.171875 -7.070312 12.171875 -5.40625 C 12.171875 -3.738281 11.640625 -2.421875 10.578125 -1.453125 C 9.515625 -0.484375 8.070312 0 6.25 0 L 0.640625 0 L 0.640625 -0.15625 L 0.84375 -0.15625 C 1.113281 -0.15625 1.34375 -0.25 1.53125 -0.4375 C 1.726562 -0.625 1.832031 -0.851562 1.84375 -1.125 L 1.84375 -9.765625 C 1.84375 -10.015625 1.738281 -10.222656 1.53125 -10.390625 C 1.332031 -10.566406 1.101562 -10.65625 0.84375 -10.65625 L 0.640625 -10.65625 L 0.640625 -10.8125 Z M 6.046875 -0.65625 C 6.785156 -0.65625 7.425781 -0.847656 7.96875 -1.234375 C 8.507812 -1.617188 8.925781 -2.164062 9.21875 -2.875 C 9.507812 -3.59375 9.65625 -4.375 9.65625 -5.21875 C 9.65625 -6.0625 9.566406 -6.78125 9.390625 -7.375 C 9.222656 -7.96875 8.984375 -8.46875 8.671875 -8.875 C 8.035156 -9.726562 7.160156 -10.15625 6.046875 -10.15625 L 4.15625 -10.15625 L 4.15625 -0.65625 Z M 6.046875 -0.65625 "/></g></g></g><g fill="#000000" fill-opacity="1"><g transform="translate(220.325513, 225.562396)"><g><path d="M 0.84375 -0.15625 C 1.113281 -0.15625 1.34375 -0.25 1.53125 -0.4375 C 1.726562 -0.625 1.832031 -0.851562 1.84375 -1.125 L 1.84375 -9.71875 C 1.820312 -9.988281 1.742188 -10.1875 1.609375 -10.3125 C 1.359375 -10.539062 1.101562 -10.65625 0.84375 -10.65625 L 0.640625 -10.65625 L 0.640625 -10.8125 L 6.5625 -10.8125 C 7.0625 -10.8125 7.476562 -10.847656 7.8125 -10.921875 C 8.144531 -10.992188 8.34375 -11.046875 8.40625 -11.078125 L 8.40625 -8.375 L 8.265625 -8.390625 L 8.265625 -8.5625 C 8.265625 -9.207031 8.023438 -9.660156 7.546875 -9.921875 C 7.316406 -10.054688 7.050781 -10.128906 6.75 -10.140625 L 4.15625 -10.140625 L 4.15625 -5.65625 L 6.1875 -5.65625 C 6.570312 -5.664062 6.882812 -5.796875 7.125 -6.046875 C 7.375 -6.296875 7.5 -6.609375 7.5 -6.984375 L 7.5 -7.109375 L 7.65625 -7.109375 L 7.65625 -3.546875 L 7.5 -3.546875 L 7.5 -3.671875 C 7.5 -4.054688 7.378906 -4.367188 7.140625 -4.609375 C 6.898438 -4.859375 6.59375 -4.988281 6.21875 -5 L 4.15625 -5 L 4.15625 -0.65625 L 6.171875 -0.65625 C 6.921875 -0.65625 7.550781 -0.867188 8.0625 -1.296875 C 8.570312 -1.734375 8.953125 -2.351562 9.203125 -3.15625 L 9.359375 -3.15625 L 8.640625 0 L 0.640625 0 L 0.640625 -0.15625 Z M 0.84375 -0.15625 "/></g></g></g><g fill="#000000" fill-opacity="1"><g transform="translate(230.064126, 225.562396)"><g><path d="M 0.84375 -0.15625 C 1.113281 -0.15625 1.34375 -0.25 1.53125 -0.4375 C 1.726562 -0.625 1.832031 -0.851562 1.84375 -1.125 L 1.84375 -9.671875 C 1.832031 -9.941406 1.726562 -10.171875 1.53125 -10.359375 C 1.34375 -10.554688 1.113281 -10.65625 0.84375 -10.65625 L 0.640625 -10.65625 L 0.640625 -10.8125 L 5.34375 -10.8125 L 5.328125 -10.65625 L 5.140625 -10.65625 C 4.867188 -10.65625 4.632812 -10.554688 4.4375 -10.359375 C 4.25 -10.171875 4.15625 -9.941406 4.15625 -9.671875 L 4.15625 -0.65625 L 6.171875 -0.65625 C 6.921875 -0.65625 7.550781 -0.867188 8.0625 -1.296875 C 8.570312 -1.734375 8.953125 -2.351562 9.203125 -3.15625 L 9.359375 -3.15625 L 8.640625 0 L 0.640625 0 L 0.640625 -0.15625 Z M 0.84375 -0.15625 "/></g></g></g><g fill="#000000" fill-opacity="1"><g transform="translate(239.571224, 225.562396)"><g><path d="M 6.53125 0.21875 C 4.769531 0.21875 3.351562 -0.285156 2.28125 -1.296875 C 1.21875 -2.316406 0.6875 -3.6875 0.6875 -5.40625 C 0.6875 -7.132812 1.21875 -8.5 2.28125 -9.5 C 3.351562 -10.507812 4.800781 -11.015625 6.625 -11.015625 C 7.445312 -11.015625 8.242188 -10.9375 9.015625 -10.78125 C 9.785156 -10.625 10.410156 -10.425781 10.890625 -10.1875 L 10.921875 -7.53125 L 10.78125 -7.53125 C 10.507812 -8.53125 10.046875 -9.253906 9.390625 -9.703125 C 8.742188 -10.148438 7.972656 -10.375 7.078125 -10.375 C 5.835938 -10.375 4.882812 -9.925781 4.21875 -9.03125 C 3.550781 -8.144531 3.21875 -6.925781 3.21875 -5.375 C 3.21875 -3.832031 3.519531 -2.625 4.125 -1.75 C 4.738281 -0.875 5.609375 -0.4375 6.734375 -0.4375 C 7.546875 -0.4375 8.222656 -0.664062 8.765625 -1.125 C 9.035156 -1.363281 9.234375 -1.640625 9.359375 -1.953125 L 9.359375 -4.328125 C 9.359375 -4.546875 9.285156 -4.710938 9.140625 -4.828125 C 9.003906 -4.953125 8.804688 -5.015625 8.546875 -5.015625 L 8.3125 -5.015625 L 8.3125 -5.171875 L 12.640625 -5.171875 L 12.640625 -5.015625 L 12.40625 -5.015625 C 12.164062 -5.015625 11.976562 -4.953125 11.84375 -4.828125 C 11.707031 -4.710938 11.640625 -4.546875 11.640625 -4.328125 L 11.640625 -1.78125 C 11.234375 -1.25 10.566406 -0.78125 9.640625 -0.375 C 8.722656 0.0195312 7.6875 0.21875 6.53125 0.21875 Z M 6.53125 0.21875 "/></g></g></g><g fill="#000000" fill-opacity="1"><g transform="translate(252.473716, 225.562396)"><g><path d="M 11.390625 -0.15625 L 11.53125 -0.15625 L 11.53125 0 L 6.609375 0 L 6.609375 -0.15625 L 6.75 -0.15625 C 6.976562 -0.15625 7.144531 -0.222656 7.25 -0.359375 C 7.351562 -0.503906 7.40625 -0.632812 7.40625 -0.75 C 7.40625 -0.875 7.378906 -1 7.328125 -1.125 L 6.578125 -3.03125 L 2.96875 -3.03125 L 2.15625 -1.125 C 2.101562 -0.988281 2.078125 -0.863281 2.078125 -0.75 C 2.078125 -0.632812 2.132812 -0.503906 2.25 -0.359375 C 2.363281 -0.222656 2.535156 -0.15625 2.765625 -0.15625 L 2.890625 -0.15625 L 2.890625 0 L -0.421875 0 L -0.421875 -0.15625 L -0.28125 -0.15625 C -0.0390625 -0.15625 0.191406 -0.226562 0.421875 -0.375 C 0.660156 -0.519531 0.859375 -0.734375 1.015625 -1.015625 L 4.578125 -9.09375 C 5.066406 -10.113281 5.328125 -10.785156 5.359375 -11.109375 L 5.5 -11.109375 L 10.078125 -1.046875 C 10.234375 -0.753906 10.425781 -0.53125 10.65625 -0.375 C 10.894531 -0.226562 11.140625 -0.15625 11.390625 -0.15625 Z M 3.234375 -3.671875 L 6.3125 -3.671875 L 4.8125 -7.46875 Z M 3.234375 -3.671875 "/></g></g></g><g fill="#000000" fill-opacity="1"><g transform="translate(263.524165, 225.562396)"><g><path d="M 6.3125 -10.171875 L 6.3125 -1.109375 C 6.320312 -0.835938 6.421875 -0.609375 6.609375 -0.421875 C 6.804688 -0.242188 7.035156 -0.15625 7.296875 -0.15625 L 7.484375 -0.15625 L 7.5 0 L 2.8125 0 L 2.8125 -0.15625 L 3.015625 -0.15625 C 3.265625 -0.15625 3.484375 -0.242188 3.671875 -0.421875 C 3.867188 -0.609375 3.976562 -0.832031 4 -1.09375 L 4 -10.171875 L 1.921875 -10.171875 C 1.441406 -10.160156 1.0625 -10.007812 0.78125 -9.71875 C 0.507812 -9.4375 0.375 -9.0625 0.375 -8.59375 L 0.375 -8.40625 L 0.21875 -8.40625 L 0.21875 -11.09375 C 0.632812 -10.925781 1.238281 -10.835938 2.03125 -10.828125 L 8.265625 -10.828125 C 8.578125 -10.828125 8.921875 -10.851562 9.296875 -10.90625 C 9.671875 -10.96875 9.929688 -11.03125 10.078125 -11.09375 L 10.078125 -8.40625 L 9.921875 -8.40625 L 9.921875 -8.59375 C 9.921875 -9.238281 9.679688 -9.691406 9.203125 -9.953125 C 8.972656 -10.085938 8.695312 -10.160156 8.375 -10.171875 Z M 6.3125 -10.171875 "/></g></g></g><g fill="#000000" fill-opacity="1"><g transform="translate(273.80295, 225.562396)"><g><path d="M 6.3125 -10.171875 L 6.3125 -1.109375 C 6.320312 -0.835938 6.421875 -0.609375 6.609375 -0.421875 C 6.804688 -0.242188 7.035156 -0.15625 7.296875 -0.15625 L 7.484375 -0.15625 L 7.5 0 L 2.8125 0 L 2.8125 -0.15625 L 3.015625 -0.15625 C 3.265625 -0.15625 3.484375 -0.242188 3.671875 -0.421875 C 3.867188 -0.609375 3.976562 -0.832031 4 -1.09375 L 4 -10.171875 L 1.921875 -10.171875 C 1.441406 -10.160156 1.0625 -10.007812 0.78125 -9.71875 C 0.507812 -9.4375 0.375 -9.0625 0.375 -8.59375 L 0.375 -8.40625 L 0.21875 -8.40625 L 0.21875 -11.09375 C 0.632812 -10.925781 1.238281 -10.835938 2.03125 -10.828125 L 8.265625 -10.828125 C 8.578125 -10.828125 8.921875 -10.851562 9.296875 -10.90625 C 9.671875 -10.96875 9.929688 -11.03125 10.078125 -11.09375 L 10.078125 -8.40625 L 9.921875 -8.40625 L 9.921875 -8.59375 C 9.921875 -9.238281 9.679688 -9.691406 9.203125 -9.953125 C 8.972656 -10.085938 8.695312 -10.160156 8.375 -10.171875 Z M 6.3125 -10.171875 "/></g></g></g><g fill="#000000" fill-opacity="1"><g transform="translate(284.081735, 225.562396)"><g><path d="M 2.390625 -9.5 C 3.492188 -10.507812 4.972656 -11.015625 6.828125 -11.015625 C 8.691406 -11.015625 10.171875 -10.507812 11.265625 -9.5 C 12.359375 -8.5 12.90625 -7.132812 12.90625 -5.40625 C 12.90625 -3.675781 12.359375 -2.304688 11.265625 -1.296875 C 10.171875 -0.285156 8.691406 0.21875 6.828125 0.21875 C 4.972656 0.21875 3.492188 -0.285156 2.390625 -1.296875 C 1.296875 -2.304688 0.75 -3.675781 0.75 -5.40625 C 0.75 -7.132812 1.296875 -8.5 2.390625 -9.5 Z M 4.234375 -1.765625 C 4.867188 -0.878906 5.726562 -0.4375 6.8125 -0.4375 C 7.90625 -0.4375 8.769531 -0.878906 9.40625 -1.765625 C 10.050781 -2.660156 10.375 -3.875 10.375 -5.40625 C 10.375 -6.9375 10.050781 -8.144531 9.40625 -9.03125 C 8.769531 -9.925781 7.90625 -10.375 6.8125 -10.375 C 5.726562 -10.375 4.867188 -9.925781 4.234375 -9.03125 C 3.597656 -8.144531 3.28125 -6.9375 3.28125 -5.40625 C 3.28125 -3.875 3.597656 -2.660156 4.234375 -1.765625 Z M 4.234375 -1.765625 "/></g></g></g><path stroke-linecap="butt" transform="matrix(0.74999, -0.00390208, 0.00390208, 0.74999, 70.080645, 202.660064)" fill="none" stroke-linejoin="miter" d="M 0.00185249 1.000146 L 302.584076 1.001497 " stroke="#737373" stroke-width="2" stroke-opacity="1" stroke-miterlimit="4"/><path stroke-linecap="butt" transform="matrix(0.74999, -0.00390208, 0.00390208, 0.74999, 70.080645, 236.641712)" fill="none" stroke-linejoin="miter" d="M 0.00186067 0.998573 L 302.584085 0.999925 " stroke="#737373" stroke-width="2" stroke-opacity="1" stroke-miterlimit="4"/><path fill="#ffffff" d="M 128.800781 192.921875 L 238.296875 192.921875 C 238.6875 192.921875 239.0625 193.078125 239.339844 193.355469 C 239.617188 193.628906 239.773438 194.003906 239.773438 194.398438 L 239.773438 211.121094 C 239.773438 211.511719 239.617188 211.886719 239.339844 212.164062 C 239.0625 212.4375 238.6875 212.59375 238.296875 212.59375 L 128.800781 212.59375 C 127.984375 212.59375 127.324219 211.933594 127.324219 211.121094 L 127.324219 194.398438 C 127.324219 193.582031 127.984375 192.921875 128.800781 192.921875 Z M 128.800781 192.921875 " fill-opacity="1" fill-rule="nonzero"/><g fill="#000000" fill-opacity="1"><g transform="translate(133.96296, 206.133195)"><g><path d="M 1.625 -0.71875 L 3.984375 -0.71875 L 3.984375 0 L 0.75 0 L 0.75 -6.75 L 1.625 -6.75 Z M 1.625 -0.71875 "/></g></g></g><g fill="#000000" fill-opacity="1"><g transform="translate(140.575349, 206.133195)"><g><path d="M 4.734375 -1.5 L 1.796875 -1.5 L 1.25 0 L 0.3125 0 L 2.765625 -6.71875 L 3.78125 -6.71875 L 6.203125 0 L 5.28125 0 Z M 4.484375 -2.21875 L 3.265625 -5.625 L 2.046875 -2.21875 Z M 4.484375 -2.21875 "/></g></g></g><g fill="#000000" fill-opacity="1"><g transform="translate(149.530229, 206.133195)"><g><path d="M 9.234375 -6.75 L 7.28125 0 L 6.28125 0 L 4.71875 -5.4375 L 3.09375 0 L 2.109375 0.015625 L 0.21875 -6.75 L 1.15625 -6.75 L 2.640625 -1.03125 L 4.265625 -6.75 L 5.25 -6.75 L 6.796875 -1.046875 L 8.28125 -6.75 Z M 9.234375 -6.75 "/></g></g></g><g fill="#000000" fill-opacity="1"><g transform="translate(161.408385, 206.133195)"><g/></g></g><g fill="#000000" fill-opacity="1"><g transform="translate(166.423612, 206.133195)"><g><path d="M 3.8125 0.0625 C 3.1875 0.0625 2.613281 -0.0820312 2.09375 -0.375 C 1.570312 -0.664062 1.160156 -1.070312 0.859375 -1.59375 C 0.566406 -2.125 0.421875 -2.71875 0.421875 -3.375 C 0.421875 -4.039062 0.566406 -4.632812 0.859375 -5.15625 C 1.160156 -5.6875 1.570312 -6.097656 2.09375 -6.390625 C 2.613281 -6.679688 3.1875 -6.828125 3.8125 -6.828125 C 4.4375 -6.828125 5.007812 -6.679688 5.53125 -6.390625 C 6.050781 -6.097656 6.457031 -5.6875 6.75 -5.15625 C 7.050781 -4.632812 7.203125 -4.039062 7.203125 -3.375 C 7.203125 -2.71875 7.050781 -2.125 6.75 -1.59375 C 6.457031 -1.070312 6.050781 -0.664062 5.53125 -0.375 C 5.007812 -0.0820312 4.4375 0.0625 3.8125 0.0625 Z M 3.8125 -0.703125 C 4.28125 -0.703125 4.703125 -0.8125 5.078125 -1.03125 C 5.453125 -1.25 5.75 -1.5625 5.96875 -1.96875 C 6.1875 -2.375 6.296875 -2.84375 6.296875 -3.375 C 6.296875 -3.914062 6.1875 -4.390625 5.96875 -4.796875 C 5.75 -5.203125 5.453125 -5.515625 5.078125 -5.734375 C 4.710938 -5.953125 4.289062 -6.0625 3.8125 -6.0625 C 3.332031 -6.0625 2.90625 -5.953125 2.53125 -5.734375 C 2.15625 -5.515625 1.859375 -5.203125 1.640625 -4.796875 C 1.421875 -4.390625 1.3125 -3.914062 1.3125 -3.375 C 1.3125 -2.84375 1.421875 -2.375 1.640625 -1.96875 C 1.859375 -1.5625 2.15625 -1.25 2.53125 -1.03125 C 2.90625 -0.8125 3.332031 -0.703125 3.8125 -0.703125 Z M 3.8125 -0.703125 "/></g></g></g><g fill="#000000" fill-opacity="1"><g transform="translate(176.462624, 206.133195)"><g><path d="M 4.5625 -6.75 L 4.5625 -6.03125 L 1.625 -6.03125 L 1.625 -3.765625 L 4.015625 -3.765625 L 4.015625 -3.046875 L 1.625 -3.046875 L 1.625 0 L 0.75 0 L 0.75 -6.75 Z M 4.5625 -6.75 "/></g></g></g><g fill="#000000" fill-opacity="1"><g transform="translate(183.771947, 206.133195)"><g><path d="M 4.5625 -6.75 L 4.5625 -6.03125 L 1.625 -6.03125 L 1.625 -3.765625 L 4.015625 -3.765625 L 4.015625 -3.046875 L 1.625 -3.046875 L 1.625 0 L 0.75 0 L 0.75 -6.75 Z M 4.5625 -6.75 "/></g></g></g><g fill="#000000" fill-opacity="1"><g transform="translate(191.081271, 206.133195)"><g><path d="M 1.625 -6.75 L 1.625 0 L 0.75 0 L 0.75 -6.75 Z M 1.625 -6.75 "/></g></g></g><g fill="#000000" fill-opacity="1"><g transform="translate(195.893231, 206.133195)"><g><path d="M 0.421875 -3.375 C 0.421875 -4.039062 0.566406 -4.632812 0.859375 -5.15625 C 1.160156 -5.6875 1.566406 -6.097656 2.078125 -6.390625 C 2.585938 -6.691406 3.15625 -6.84375 3.78125 -6.84375 C 4.519531 -6.84375 5.160156 -6.664062 5.703125 -6.3125 C 6.253906 -5.957031 6.660156 -5.453125 6.921875 -4.796875 L 5.859375 -4.796875 C 5.671875 -5.203125 5.398438 -5.515625 5.046875 -5.734375 C 4.703125 -5.953125 4.28125 -6.0625 3.78125 -6.0625 C 3.3125 -6.0625 2.890625 -5.953125 2.515625 -5.734375 C 2.140625 -5.515625 1.84375 -5.203125 1.625 -4.796875 C 1.414062 -4.390625 1.3125 -3.914062 1.3125 -3.375 C 1.3125 -2.84375 1.414062 -2.375 1.625 -1.96875 C 1.84375 -1.5625 2.140625 -1.25 2.515625 -1.03125 C 2.890625 -0.8125 3.3125 -0.703125 3.78125 -0.703125 C 4.28125 -0.703125 4.703125 -0.8125 5.046875 -1.03125 C 5.398438 -1.25 5.671875 -1.5625 5.859375 -1.96875 L 6.921875 -1.96875 C 6.660156 -1.320312 6.253906 -0.820312 5.703125 -0.46875 C 5.160156 -0.113281 4.519531 0.0625 3.78125 0.0625 C 3.15625 0.0625 2.585938 -0.0820312 2.078125 -0.375 C 1.566406 -0.675781 1.160156 -1.085938 0.859375 -1.609375 C 0.566406 -2.128906 0.421875 -2.71875 0.421875 -3.375 Z M 0.421875 -3.375 "/></g></g></g><g fill="#000000" fill-opacity="1"><g transform="translate(205.796724, 206.133195)"><g><path d="M 1.625 -6.03125 L 1.625 -3.78125 L 4.09375 -3.78125 L 4.09375 -3.046875 L 1.625 -3.046875 L 1.625 -0.71875 L 4.375 -0.71875 L 4.375 0 L 0.75 0 L 0.75 -6.765625 L 4.375 -6.765625 L 4.375 -6.03125 Z M 1.625 -6.03125 "/></g></g></g><g fill="#000000" fill-opacity="1"><g transform="translate(213.193172, 206.133195)"><g/></g></g><g fill="#000000" fill-opacity="1"><g transform="translate(218.208402, 206.133195)"><g><path d="M 3.8125 0.0625 C 3.1875 0.0625 2.613281 -0.0820312 2.09375 -0.375 C 1.570312 -0.664062 1.160156 -1.070312 0.859375 -1.59375 C 0.566406 -2.125 0.421875 -2.71875 0.421875 -3.375 C 0.421875 -4.039062 0.566406 -4.632812 0.859375 -5.15625 C 1.160156 -5.6875 1.570312 -6.097656 2.09375 -6.390625 C 2.613281 -6.679688 3.1875 -6.828125 3.8125 -6.828125 C 4.4375 -6.828125 5.007812 -6.679688 5.53125 -6.390625 C 6.050781 -6.097656 6.457031 -5.6875 6.75 -5.15625 C 7.050781 -4.632812 7.203125 -4.039062 7.203125 -3.375 C 7.203125 -2.71875 7.050781 -2.125 6.75 -1.59375 C 6.457031 -1.070312 6.050781 -0.664062 5.53125 -0.375 C 5.007812 -0.0820312 4.4375 0.0625 3.8125 0.0625 Z M 3.8125 -0.703125 C 4.28125 -0.703125 4.703125 -0.8125 5.078125 -1.03125 C 5.453125 -1.25 5.75 -1.5625 5.96875 -1.96875 C 6.1875 -2.375 6.296875 -2.84375 6.296875 -3.375 C 6.296875 -3.914062 6.1875 -4.390625 5.96875 -4.796875 C 5.75 -5.203125 5.453125 -5.515625 5.078125 -5.734375 C 4.710938 -5.953125 4.289062 -6.0625 3.8125 -6.0625 C 3.332031 -6.0625 2.90625 -5.953125 2.53125 -5.734375 C 2.15625 -5.515625 1.859375 -5.203125 1.640625 -4.796875 C 1.421875 -4.390625 1.3125 -3.914062 1.3125 -3.375 C 1.3125 -2.84375 1.421875 -2.375 1.640625 -1.96875 C 1.859375 -1.5625 2.15625 -1.25 2.53125 -1.03125 C 2.90625 -0.8125 3.332031 -0.703125 3.8125 -0.703125 Z M 3.8125 -0.703125 "/></g></g></g><g fill="#000000" fill-opacity="1"><g transform="translate(228.247416, 206.133195)"><g><path d="M 4.5625 -6.75 L 4.5625 -6.03125 L 1.625 -6.03125 L 1.625 -3.765625 L 4.015625 -3.765625 L 4.015625 -3.046875 L 1.625 -3.046875 L 1.625 0 L 0.75 0 L 0.75 -6.75 Z M 4.5625 -6.75 "/></g></g></g></svg>